<svg width="210" height="210" xmlns="http://www.w3.org/2000/svg" version="1.1">

 <metadata id="metadata4628">image/svg+xml</metadata>
 <g>
  <title>Layer 1</title>
  <g stroke-width="0.38371" stroke="#000" fill="#16782e" id="layer1"  >
   <path stroke="#000" stroke-width="0.38371" fill="#16782e"    d="m163.06208,5.16904l-116.12379,0c-2.56359,0 -4.64484,2.08089 -4.64484,4.64486l0,157.92776c0,2.56321 2.08087,4.64484 4.64484,4.64484c2.56435,0 4.64485,-2.08202 4.64485,-4.64484l0,-153.28253l106.8337,0l0,3.33715l-48.77181,35.40864l0,151.62604l49.03505,-35.60124c0.62582,1.82801 2.34065,3.15488 4.382,3.15488c2.56281,0 4.64447,-2.07972 4.64447,-4.64485l0,-157.92778c0.00037,-2.56434 -2.08166,-4.64293 -4.64447,-4.64293zm-34.99116,127.38232c-2.18869,0 -4.01441,-2.70364 -4.48599,-6.3255l-5.23039,0l0,-4.06429l5.30484,0c0.5556,-3.3997 2.30687,-5.9015 4.41154,-5.9015c2.54479,0 4.60646,3.6445 4.60646,8.1466c0.003,4.4975 -2.06167,8.14469 -4.60646,8.14469z" id="path4518"/>
  </g>
 </g>
</svg>