<?xml version="1.0" encoding="UTF-8"?><svg id="Layer_2" xmlns="http://www.w3.org/2000/svg" viewBox="0 0 214.34 209.09"><defs><style>.cls-1{fill:#8bc341;}.cls-2{fill:#f49122;}.cls-3{fill:#27a7df;}</style></defs><g id="Layer_1-2"><g><path class="cls-1" d="m25.59,92.04v-.18l-.06.09.06.1Z"/><path class="cls-1" d="m187.57,71.88c8.29-4.65,16.47-9.51,24.75-14.18,1.51-.85,2.06-1.79,2.02-3.48-.11-4.06-.03-8.12-.03-12.19,0-4.78,0-9.55,0-15.07-1.61.86-2.58,1.35-3.52,1.89-36.67,21.04-73.38,42.01-109.97,63.21-5.78,3.35-10.75,3.57-16.48,0-9.79-6.09-19.9-11.68-29.88-17.47-.82-.48-1.7-.87-2.85-1.46,0,9.71-.05,18.93.08,28.16.01.83.94,1.94,1.74,2.41,9.21,5.47,18.46,10.86,27.72,16.23,7.72,4.47,15.48,4.28,23.15-.12,17.38-9.96,34.74-19.97,52.1-29.96.91-.52,1.86-.98,2.93-1.53l27.27-15.82c.28-.22.59-.44.96-.65Z"/><path class="cls-3" d="m31.21,62.27c.26-.17.49-.34.77-.5.96-.56,1.93-1.12,2.89-1.68h-4.07l.41,2.18Z"/><path class="cls-3" d="m186.61,72.52l-27.27,15.82c.1.7.16.97.16,1.24,0,15.79.06,31.58-.02,47.37-.02,4.7-2.31,8.16-6.44,10.55-17.98,10.4-35.93,20.86-53.85,31.36-4.51,2.64-8.82,2.63-13.32-.02-17.91-10.52-35.84-21-53.82-31.4-2.42-1.4-4.12-3.16-5.17-5.28h-.03s-23.26,15.85-23.26,15.85c1.92,2.92,4.61,5.39,8.08,7.41,23.14,13.47,46.31,26.89,69.45,40.35,7.74,4.5,15.42,4.4,23.11-.07,22.75-13.23,45.46-26.5,68.24-39.66,8.52-4.92,12.78-11.95,12.7-21.96-.19-22.62-.03-45.24-.11-67.87,0-1.72.44-2.79,1.56-3.68Z"/><path class="cls-2" d="m26.88,142.15c-.84-1.7-1.28-3.62-1.28-5.82,0-14.76,0-29.53,0-44.29l-.06-.1.06-.09c0-6.32,0-12.64,0-18.96,0-4.64,1.82-8.13,5.63-10.62l3.66-2.18c17-9.86,33.98-19.77,50.93-29.72,4.6-2.7,8.98-2.66,13.57.05,14.56,8.57,29.17,17.06,43.81,25.49.81.47,2.32.52,3.12.07,7.07-3.99,14.06-8.14,21.07-12.24.83-.49,1.65-1,2.76-1.68-.88-.61-1.37-1-1.9-1.32-21.54-12.55-43.05-25.14-64.63-37.61-7.29-4.21-14.77-4.2-22.12.07C58.16,16.74,34.84,30.26,11.55,43.84,3.89,48.3.02,55.05,0,63.93c-.02,27.05,0,54.11,0,81.16,0,4.98,1.2,9.28,3.58,12.9l23.26-15.84h.03Z"/></g></g></svg>